# xmcd
#
# Track frame offsets:
# 182
# 37175
# 63547
# 77065
# 97455
# 121040
# 145610
# 196415
# 225782
# 236955
# 254927
# 300872
# 319550
#
# Disc length: 4716 seconds
#
#
# Revision: 0
# Processed by: cddbd v1.4PL0 Copyright (c) Steve Scherf et al.
# Submitted via: FreeRIP 2.00 
#
DISCID=b1126a0d
DTITLE=Jimi Hendrix - Riots In Berkeley
DYEAR=1970
DGENRE=Blues
TTITLE0=Pass It On (Unreleased)
TTITLE1=Hey Baby (New Rising Sun)
TTITLE2=Lover Man
TTITLE3=Stone Free
TTITLE4=Hey Joe
TTITLE5=I Don't Live Today
TTITLE6=Machine Gun
TTITLE7=Foxy Lady
TTITLE8=The Star Spangled Banner
TTITLE9=Purple Haze
TTITLE10=Voodoo Chile (Slight Return)
TTITLE11=Blue Suede Shoes
TTITLE12=Easy Rider
EXTD=
EXTT0=
EXTT1=
EXTT2=
EXTT3=
EXTT4=
EXTT5=
EXTT6=
EXTT7=
EXTT8=
EXTT9=
EXTT10=
EXTT11=
EXTT12=
PLAYORDER=
